<svg id="Layer_1" data-name="Layer 1" xmlns="http://www.w3.org/2000/svg" width="500" height="178.48" viewBox="0 0 500 178.48"><defs><style>.cls-1{fill:#666;}.cls-1,.cls-10,.cls-12,.cls-2,.cls-3,.cls-6,.cls-8{stroke:#000;}.cls-1,.cls-10,.cls-12,.cls-2,.cls-3,.cls-4,.cls-6,.cls-8{stroke-miterlimit:10;}.cls-2{fill:gray;}.cls-3{fill:#999;}.cls-4,.cls-8{fill:#998f00;}.cls-4{stroke:#666;}.cls-5{fill:#b3a700;}.cls-6{fill:#333;}.cls-7{fill:#4d4d4d;}.cls-9{fill:#404040;}.cls-10,.cls-13{fill:#7d7500;}.cls-11,.cls-12{fill:#968c00;}</style></defs><title>building1</title><polygon class="cls-1" points="474.33 178.48 474.33 26.59 499 1.93 499 178.48 474.33 178.48"/><rect class="cls-2" x="2.11" y="26.6" width="472.22" height="151.89"/><polygon class="cls-3" points="499 1.98 34.56 1.98 2.11 26.54 474.33 26.59 499 1.98"/><rect class="cls-4" x="12.33" y="35.93" width="42.56" height="42.56"/><polygon class="cls-5" points="12.33 78.48 54.89 35.93 12.33 35.93 12.33 78.48"/><rect class="cls-6" x="62.33" y="35.93" width="42.56" height="42.56"/><polygon class="cls-7" points="62.33 78.48 104.89 35.93 62.33 35.93 62.33 78.48"/><rect class="cls-6" x="112.33" y="35.93" width="42.56" height="42.56"/><polygon class="cls-7" points="112.33 78.48 154.89 35.93 112.33 35.93 112.33 78.48"/><rect class="cls-6" x="162.33" y="35.93" width="42.56" height="42.56"/><polygon class="cls-7" points="162.33 78.48 204.89 35.93 162.33 35.93 162.33 78.48"/><rect class="cls-6" x="212.33" y="35.93" width="42.56" height="42.56"/><polygon class="cls-7" points="212.33 78.48 254.89 35.93 212.33 35.93 212.33 78.48"/><rect class="cls-6" x="262.33" y="35.93" width="42.56" height="42.56"/><polygon class="cls-7" points="262.33 78.48 304.89 35.93 262.33 35.93 262.33 78.48"/><rect class="cls-6" x="312.33" y="35.93" width="42.56" height="42.56"/><polygon class="cls-7" points="312.33 78.48 354.89 35.93 312.33 35.93 312.33 78.48"/><rect class="cls-8" x="362.33" y="35.93" width="42.56" height="42.56"/><polygon class="cls-5" points="362.33 78.48 404.89 35.93 362.33 35.93 362.33 78.48"/><rect class="cls-6" x="412.33" y="35.93" width="42.56" height="42.56"/><polygon class="cls-7" points="412.33 78.48 454.89 35.93 412.33 35.93 412.33 78.48"/><polygon class="cls-6" points="485.67 67.76 476.72 77.54 476.72 34.98 485.67 25.21 485.67 67.76"/><polygon class="cls-9" points="476.72 77.54 485.67 25.21 476.72 34.98 476.72 77.54"/><polygon class="cls-6" points="496.92 55.84 487.97 65.62 487.97 23.07 496.92 13.29 496.92 55.84"/><polygon class="cls-9" points="487.97 65.62 496.92 13.29 487.97 23.07 487.97 65.62"/><polygon class="cls-6" points="485.67 117.76 476.72 127.54 476.72 84.98 485.67 75.21 485.67 117.76"/><polygon class="cls-9" points="476.72 127.54 485.67 75.21 476.72 84.98 476.72 127.54"/><polygon class="cls-10" points="496.92 105.84 487.97 115.62 487.97 73.07 496.92 63.29 496.92 105.84"/><polygon class="cls-11" points="487.97 115.62 496.92 63.29 487.97 73.07 487.97 115.62"/><polygon class="cls-12" points="485.67 167.76 476.72 177.54 476.72 134.98 485.67 125.21 485.67 167.76"/><polygon class="cls-13" points="476.72 177.54 485.67 125.21 476.72 134.98 476.72 177.54"/><polygon class="cls-6" points="496.92 155.84 487.97 165.62 487.97 123.07 496.92 113.29 496.92 155.84"/><polygon class="cls-9" points="487.97 165.62 496.92 113.29 487.97 123.07 487.97 165.62"/><polygon class="cls-6" points="485.67 217.76 476.72 227.54 476.72 184.98 485.67 175.21 485.67 217.76"/><polygon class="cls-9" points="476.72 227.54 485.67 175.21 476.72 184.98 476.72 227.54"/><polygon class="cls-6" points="496.92 205.84 487.97 215.62 487.97 173.07 496.92 163.29 496.92 205.84"/><polygon class="cls-9" points="487.97 215.62 496.92 163.29 487.97 173.07 487.97 215.62"/><rect class="cls-6" x="12.33" y="85.93" width="42.56" height="42.56"/><polygon class="cls-7" points="12.33 128.48 54.89 85.93 12.33 85.93 12.33 128.48"/><rect class="cls-6" x="62.33" y="85.93" width="42.56" height="42.56"/><polygon class="cls-7" points="62.33 128.48 104.89 85.93 62.33 85.93 62.33 128.48"/><rect class="cls-6" x="112.33" y="85.93" width="42.56" height="42.56"/><polygon class="cls-7" points="112.33 128.48 154.89 85.93 112.33 85.93 112.33 128.48"/><rect class="cls-6" x="162.33" y="85.93" width="42.56" height="42.56"/><polygon class="cls-7" points="162.33 128.48 204.89 85.93 162.33 85.93 162.33 128.48"/><rect class="cls-8" x="212.33" y="85.93" width="42.56" height="42.56"/><polygon class="cls-5" points="212.33 128.48 254.89 85.93 212.33 85.93 212.33 128.48"/><rect class="cls-6" x="262.33" y="85.93" width="42.56" height="42.56"/><polygon class="cls-7" points="262.33 128.48 304.89 85.93 262.33 85.93 262.33 128.48"/><rect class="cls-6" x="312.33" y="85.93" width="42.56" height="42.56"/><polygon class="cls-7" points="312.33 128.48 354.89 85.93 312.33 85.93 312.33 128.48"/><rect class="cls-6" x="362.33" y="85.93" width="42.56" height="42.56"/><polygon class="cls-7" points="362.33 128.48 404.89 85.93 362.33 85.93 362.33 128.48"/><rect class="cls-6" x="412.33" y="85.93" width="42.56" height="42.56"/><polygon class="cls-7" points="412.33 128.48 454.89 85.93 412.33 85.93 412.33 128.48"/><rect class="cls-6" x="12.33" y="135.93" width="42.56" height="42.56"/><polygon class="cls-7" points="12.33 178.48 54.89 135.93 12.33 135.93 12.33 178.48"/><rect class="cls-6" x="62.33" y="135.93" width="42.56" height="42.56"/><polygon class="cls-7" points="62.33 178.48 104.89 135.93 62.33 135.93 62.33 178.48"/><rect class="cls-8" x="112.33" y="135.93" width="42.56" height="42.56"/><polygon class="cls-5" points="112.33 178.48 154.89 135.93 112.33 135.93 112.33 178.48"/><rect class="cls-6" x="162.33" y="135.93" width="42.56" height="42.56"/><polygon class="cls-7" points="162.33 178.48 204.89 135.93 162.33 135.93 162.33 178.48"/><rect class="cls-6" x="212.33" y="135.93" width="42.56" height="42.56"/><polygon class="cls-7" points="212.33 178.48 254.89 135.93 212.33 135.93 212.33 178.48"/><rect class="cls-6" x="262.33" y="135.93" width="42.56" height="42.56"/><polygon class="cls-7" points="262.33 178.48 304.89 135.93 262.33 135.93 262.33 178.48"/><rect class="cls-6" x="312.33" y="135.93" width="42.56" height="42.56"/><polygon class="cls-7" points="312.33 178.48 354.89 135.93 312.33 135.93 312.33 178.48"/><rect class="cls-8" x="362.33" y="135.93" width="42.56" height="42.56"/><polygon class="cls-5" points="362.33 178.48 404.89 135.93 362.33 135.93 362.33 178.48"/><rect class="cls-6" x="412.33" y="135.93" width="42.56" height="42.56"/><polygon class="cls-7" points="412.33 178.48 454.89 135.93 412.33 135.93 412.33 178.48"/></svg>