<svg id="Layer_1" data-name="Layer 1" xmlns="http://www.w3.org/2000/svg" width="59.13" height="77.76" viewBox="0 0 59.13 77.76"><defs><style>.cls-1{fill:#414042;}.cls-1,.cls-2,.cls-3,.cls-4,.cls-5,.cls-6,.cls-7{stroke:#000;stroke-miterlimit:10;}.cls-3{fill:#fff;}.cls-4{fill:none;}.cls-5{fill:#1c75bc;}.cls-6{fill:#808285;}.cls-7{fill:#434345;}</style></defs><title>ninja</title><path class="cls-1" d="M41,35.08s14.4,5.27,15.79,7.29c1.1,1.6,2.47,6.06,1.62,7.18-1,1.28-9.39-9.34-17-11.67"/><path class="cls-1" d="M20,38.2S6.4,33.75,2.12,32.86C0.93,32.62-.13,28.73.94,28.15c4-2.17,16.41,6.33,20.23,7"/><path class="cls-1" d="M33.91,60.16c0-.41,1.51,15.69,2.42,16.25,2.42,1.5,6.81.68,5-.6-0.81-.58-4.46-15.65-4.46-15.65"/><path class="cls-1" d="M19,58.92L14.82,77s3.34,0.59,4.77,0,2.23-17.66,2.23-17.66"/><path class="cls-1" d="M23.73,28.15S13.38,55.89,13.66,57.37s27.88,5.46,29.21,0-3.1-29.21-3.1-29.21"/><path class="cls-1" d="M46.39,15.87C44.75,23,40,30.63,32,30.63s-13.2-5.09-14.54-14.76c-0.65-4.65,1.22-7.71,4.38-11.32,2.48-2.83,7.09-4,10.09-4,4,0,9.33,2,11.62,5.86C45.51,9.69,47.35,11.75,46.39,15.87Z"/><path class="cls-2" d="M17.35,13.33c-0.25-1.81-5.78-1-7.06-2.66s1.62-4,1.18-2.9S17.32,11,17.32,11s24.57-3.22,28.5-.3c1.8,1.34-.46,6.79.18,6.65s-27.93,0-27.93,0"/><path class="cls-3" d="M43.34,16.72c-2.79,1-7.4.25-12,.3-4.48.05-9,.94-11.65-0.3-1.37-.63-0.17-4.56,1-5.49,2.11-1.72,9.76-2.65,21.35-.89C43.73,10.61,45,16.1,43.34,16.72Z"/><path class="cls-4" d="M41.83,4.28s-15.07,2.08-20,.26"/><path class="cls-4" d="M41.22,26.29s-16.28-1.22-18.35,1.17"/><path class="cls-4" d="M43.53,23.14s-19-2.62-23.94,0"/><path class="cls-4" d="M25.89,1.77s10.38,1,12,0"/><path class="cls-4" d="M29.43,14.48s-3.27-3.71-6.63-2.08c-2.3,1.12.19,3.18-.17,3.1C21,15.1,26.81,14.79,27.33,15S29.31,15.41,29.43,14.48Z"/><ellipse class="cls-5" cx="25.67" cy="13.79" rx="0.94" ry="0.95" transform="translate(-2.57 6.62) rotate(-13.99)"/><path class="cls-4" d="M33.45,14.58A6.42,6.42,0,0,1,40,12.34c1.41,0.29,1.68,2.71.24,3.09-1.61.43-4.19-.6-4.7-0.38S33.59,15.51,33.45,14.58Z"/><ellipse class="cls-5" cx="37.81" cy="13.77" rx="0.95" ry="0.92" transform="translate(16.1 47.65) rotate(-77.36)"/><path class="cls-2" d="M16.81,12.71s-4.73,4-5.23,3-1.39,2.74,0,2.44a3.3,3.3,0,0,0,1.67-.93c1.51-1.63,3.86-2.85,4-2"/><polygon class="cls-6" points="23.11 29.81 14.95 23.09 13.03 26.18 22.52 31.41 23.11 29.81"/><polygon class="cls-6" points="40.06 29.81 46.65 25.16 48.92 23.56 49.92 26.72 40.5 31.41 40.06 29.81"/><polyline class="cls-4" points="15.52 23.34 16.69 27.8 19.59 27.47 21.16 30.28 22.81 29.57"/><polyline class="cls-4" points="41.83 30.74 42.47 28.41 44.6 28.88 45.5 26.36 48.22 27.11 48.7 24.37"/><path class="cls-2" d="M42.71,47.91L17.32,45.77s-1.55,2.49-.88,2.52c7.23,0.31,21.46,7.51,26,2.59,0.41-.44.28-3,0.28-3"/><path class="cls-2" d="M16.44,48.28S14.49,51.46,13,51.76,11.57,50,11.57,50l5.65-4Z"/><path class="cls-2" d="M17.32,45.77l-2.93-5.08s-2.38.65-2.82,2.54,4.87,3.38,4.87,3.38"/><path class="cls-1" d="M29.43,11.48c-0.52.08-6.94-1.29-4.7-1.81"/><path class="cls-1" d="M32.83,11.27c1.74,1,7.78-2,7.67-1.05"/><path class="cls-7" d="M33,19.29c-1.91-.18-1.13.95-0.26,0.15a1.92,1.92,0,0,0,.26-0.3c1-1.33-.86.29-1.41,0.29"/></svg>