<?xml version="1.0" encoding="iso-8859-1"?>
<!-- Generator: Adobe Illustrator 15.0.2, SVG Export Plug-In . SVG Version: 6.00 Build 0)  -->
<!DOCTYPE svg PUBLIC "-//W3C//DTD SVG 1.1//EN" "http://www.w3.org/Graphics/SVG/1.1/DTD/svg11.dtd">
<svg version="1.1" id="Layer_1" xmlns="http://www.w3.org/2000/svg" xmlns:xlink="http://www.w3.org/1999/xlink" x="0px" y="0px"
	 width="77.379px" height="100px" viewBox="0 0 77.379 100" style="enable-background:new 0 0 77.379 100;" xml:space="preserve">
<path style="fill:#414042;stroke:#000000;stroke-miterlimit:10;" d="M53.189,45.089c0,0,18.53,6.787,20.313,9.376
	c1.42,2.062,3.172,7.792,2.09,9.24c-1.23,1.646-12.087-12.016-21.839-15.022"/>
<path style="fill:#414042;stroke:#000000;stroke-miterlimit:10;" d="M26.272,49.105c0,0-17.545-5.726-23.054-6.866
	c-1.528-0.316-2.89-5.311-1.52-6.058c5.129-2.797,21.114,8.147,26.025,8.943"/>
<path style="fill:#414042;stroke:#000000;stroke-miterlimit:10;" d="M44.119,77.364c0-0.528,1.944,20.184,3.112,20.911
	c3.11,1.934,8.759,0.872,6.461-0.776c-1.043-0.745-5.74-20.134-5.74-20.134"/>
<path style="fill:#414042;stroke:#000000;stroke-miterlimit:10;" d="M24.992,75.768l-5.437,23.27c0,0,4.302,0.76,6.14,0
	c1.838-0.76,2.867-22.721,2.867-22.721"/>
<path style="fill:#414042;stroke:#000000;stroke-miterlimit:10;" d="M31.024,36.182c0,0-13.318,35.691-12.963,37.591
	c0.354,1.899,35.876,7.028,37.585,0c1.71-7.028-3.988-37.591-3.988-37.591"/>
<path style="fill:#414042;stroke:#000000;stroke-miterlimit:10;" d="M60.185,20.374c-2.117,9.154-8.25,18.996-18.535,18.996
	c-10.284,0-16.979-6.554-18.707-18.996c-0.83-5.985,1.569-9.919,5.636-14.572c3.185-3.643,9.129-5.204,12.985-5.204
	c5.143,0,12.007,2.603,14.946,7.546C59.055,12.422,61.413,15.071,60.185,20.374z"/>
<path style="stroke:#000000;stroke-miterlimit:10;" d="M22.813,17.11c-0.317-2.334-7.437-1.338-9.083-3.428
	c-1.646-2.09,2.09-5.192,1.52-3.735c-0.57,1.457,7.529,4.179,7.529,4.179s31.614-4.149,36.667-0.38
	c2.313,1.726-0.594,8.738,0.231,8.562c0.826-0.176-35.934,0-35.934,0"/>
<path style="fill:#FFFFFF;stroke:#000000;stroke-miterlimit:10;" d="M56.256,21.467c-3.586,1.334-9.516,0.316-15.49,0.384
	c-5.764,0.067-11.524,1.204-14.985-0.384c-1.768-0.811-0.214-5.87,1.25-7.061c2.717-2.208,12.559-3.406,27.476-1.139
	C56.765,13.611,58.396,20.67,56.256,21.467z"/>
<path style="fill:none;stroke:#000000;stroke-miterlimit:10;" d="M54.319,5.464c0,0-19.396,2.68-25.74,0.338"/>
<path style="fill:none;stroke:#000000;stroke-miterlimit:10;" d="M53.531,33.787c0,0-20.95-1.576-23.608,1.511"/>
<path style="fill:none;stroke:#000000;stroke-miterlimit:10;" d="M56.497,29.729c0,0-24.472-3.375-30.802,0"/>
<path style="fill:none;stroke:#000000;stroke-miterlimit:10;" d="M33.801,2.233c0,0,13.353,1.227,15.406,0"/>
<g>
	<path style="fill:none;stroke:#000000;stroke-miterlimit:10;" d="M38.36,18.582c0,0-4.212-4.776-8.529-2.681
		c-2.957,1.435,0.244,4.095-0.216,3.986c-2.09-0.499,5.368-0.9,6.041-0.632C36.328,19.525,38.206,19.785,38.36,18.582z"/>
	
		<ellipse transform="matrix(0.9703 -0.2418 0.2418 0.9703 -3.2853 8.6319)" style="fill:#1C75BC;stroke:#000000;stroke-miterlimit:10;" cx="33.523" cy="17.7" rx="1.209" ry="1.218"/>
</g>
<g>
	<path style="fill:none;stroke:#000000;stroke-miterlimit:10;" d="M43.535,18.713c0.938-1.115,3.563-3.89,8.465-2.877
		c1.815,0.376,2.164,3.492,0.307,3.98c-2.076,0.547-5.387-0.775-6.053-0.492C45.588,19.609,43.715,19.913,43.535,18.713z"/>
	
		<ellipse transform="matrix(-0.9758 -0.2188 0.2188 -0.9758 93.2227 45.669)" style="fill:#1C75BC;stroke:#000000;stroke-miterlimit:10;" cx="49.14" cy="17.673" rx="1.186" ry="1.222"/>
</g>
<path style="stroke:#000000;stroke-miterlimit:10;" d="M22.125,16.303c0,0-6.083,5.208-6.729,3.85c-0.647-1.358-1.791,3.525,0,3.145
	c0.46-0.098,1.41-0.41,2.147-1.203c1.949-2.1,4.962-3.665,5.099-2.535"/>
<path style="fill:none;stroke:#000000;stroke-miterlimit:10;" d="M21.645,28.979"/>
<path style="fill:none;stroke:#000000;stroke-miterlimit:10;" d="M29.842,39.37"/>
<path style="fill:none;stroke:#000000;stroke-miterlimit:10;" d="M28.579,41.29"/>
<path style="fill:none;stroke:#000000;stroke-miterlimit:10;" d="M52.044,38.317"/>
<path style="fill:none;stroke:#000000;stroke-miterlimit:10;" d="M52.602,40.963"/>
<polygon style="fill:#808285;stroke:#000000;stroke-miterlimit:10;" points="30.231,38.317 19.725,29.666 17.255,33.646 
	29.474,40.366 "/>
<polygon style="fill:#808285;stroke:#000000;stroke-miterlimit:10;" points="52.044,38.317 60.521,32.331 63.436,30.273 
	64.729,34.342 52.602,40.366 "/>
<polyline style="fill:none;stroke:#000000;stroke-miterlimit:10;" points="20.458,29.987 21.966,35.726 25.695,35.298 
	27.724,38.916 29.842,38 "/>
<polyline style="fill:none;stroke:#000000;stroke-miterlimit:10;" points="54.319,39.513 55.132,36.511 57.879,37.111 
	59.041,33.871 62.542,34.833 63.15,31.317 "/>
<path style="stroke:#000000;stroke-miterlimit:10;" d="M55.444,61.597l-32.665-2.752c0,0-1.991,3.203-1.135,3.24
	c9.308,0.397,27.609,9.665,33.437,3.336C55.607,64.85,55.444,61.597,55.444,61.597"/>
<path style="stroke:#000000;stroke-miterlimit:10;" d="M21.645,62.085c0,0-2.509,4.09-4.389,4.47
	c-1.879,0.379-1.879-2.235-1.879-2.235l7.267-5.087L21.645,62.085z"/>
<path style="stroke:#000000;stroke-miterlimit:10;" d="M22.779,58.845l-3.771-6.538c0,0-3.062,0.838-3.633,3.269
	c-0.57,2.43,6.269,4.355,6.269,4.355"/>
<path style="fill:#414042;stroke:#000000;stroke-miterlimit:10;" d="M38.36,14.73c-0.663,0.097-8.93-1.662-6.047-2.331"/>
<path style="fill:#414042;stroke:#000000;stroke-miterlimit:10;" d="M42.73,14.457c2.236,1.271,10.014-2.637,9.872-1.353"/>
<path style="fill:#434345;stroke:#000000;stroke-miterlimit:10;" d="M42.904,24.771c-2.46-0.231-1.455,1.218-0.333,0.19
	c0.111-0.102,0.223-0.227,0.333-0.38c1.223-1.709-1.102,0.374-1.808,0.376"/>
</svg>
